<?xml version="1.0" standalone="no"?>
<!DOCTYPE svg PUBLIC "-//W3C//DTD SVG 20010904//EN"
 "http://www.w3.org/TR/2001/REC-SVG-20010904/DTD/svg10.dtd">
<svg version="1.0" xmlns="http://www.w3.org/2000/svg"
 width="97.000000pt" height="97.000000pt" viewBox="0 0 97.000000 97.000000"
 preserveAspectRatio="xMidYMid meet">
<metadata>
Created by potrace 1.14, written by Peter Selinger 2001-2017
</metadata>
<g transform="translate(0.000000,97.000000) scale(0.100000,-0.100000)"
fill="#000000" stroke="none">
<path d="M409 875 c-47 -48 -91 -60 -103 -29 -5 13 -19 4 -70 -45 -36 -33 -71
-61 -80 -61 -9 0 -16 -5 -16 -11 0 -6 -25 -36 -55 -66 -44 -44 -55 -62 -56
-89 0 -19 -1 -49 -2 -66 0 -18 -5 -36 -10 -39 -10 -7 -13 -134 -3 -159 3 -8 4
-66 3 -128 -3 -108 -2 -112 18 -112 12 0 26 5 33 12 13 13 45 20 37 8 -2 -4 6
-8 20 -8 14 0 23 3 21 7 -3 4 4 7 14 7 10 0 17 -4 14 -7 -2 -4 1 -11 6 -14 14
-9 62 3 56 14 -3 4 1 8 9 8 8 0 12 -4 9 -9 -8 -13 10 -10 25 4 11 10 13 10 7
0 -4 -6 -2 -12 3 -12 6 0 11 6 11 13 0 8 3 8 9 -2 8 -13 12 -13 27 0 11 9 15
9 10 2 -4 -7 -3 -13 3 -13 5 0 12 6 14 13 4 9 6 9 6 0 1 -7 6 -13 12 -13 5 0
7 5 3 11 -5 8 -1 8 14 0 24 -13 176 -15 168 -3 -3 5 1 9 9 9 8 0 12 -4 10 -7
-3 -4 6 -8 20 -8 14 0 23 4 20 8 -2 3 2 7 10 7 8 0 12 -4 9 -9 -3 -4 2 -8 11
-8 10 0 14 5 9 13 -6 9 -4 9 7 -1 16 -15 33 -16 23 -1 -3 6 5 3 20 -6 25 -17
83 -14 72 3 -2 4 4 8 14 8 10 0 17 -3 15 -7 -6 -9 38 -5 54 5 9 6 18 3 27 -8
7 -10 22 -16 35 -14 21 3 22 6 20 112 -1 61 -4 113 -7 118 -3 4 -1 8 4 8 13 0
12 153 -1 161 -5 4 -10 36 -11 72 -1 64 -2 66 -53 120 -29 31 -53 61 -53 66 0
6 -8 11 -17 11 -10 0 -46 28 -80 62 -50 50 -63 58 -69 45 -12 -32 -57 -20
-103 27 -37 37 -47 43 -62 33 -13 -8 -21 -8 -32 1 -11 10 -22 3 -58 -33z"/>
</g>
</svg>
